<?xml version="1.0" encoding="UTF-8"?>
<svg version="1.1" viewBox="0 0 1152 1156" width="288" height="289" xmlns="http://www.w3.org/2000/svg">
    <path transform="translate(165,5)" d="m0 0h820l24 3 17 4 16 6 17 8 17 11 13 10 14 13 9 11 9 12 11 19 7 16 6 18 3 12 2 17 1 21-1 808-3 20-7 25-8 18-8 15-13 18-15 16-10 9-17 12-18 10-16 7-20 6-22 4-11 1h-810l-21-2-25-6-17-6-19-9-15-10-14-11-19-19-12-16-11-19-8-19-6-20-5-30v-819l5-28 5-17 8-20 10-18 11-15 11-12 4-5 8-7 14-11 18-11 17-8 18-6 25-5z" fill="#FAFAFB"/>
    <path transform="translate(308,197)" d="m0 0h70l12 3 10 6 8 7 14 19 24 34 13 18 12 17 13 18 10 14 13 18 24 34 13 18 10 14 13 18 24 34 10 14 13 18 7 10 13 18 12 17 10 14-1 7-11 15-26 36-20 28-14 19-13 19-7 9-39 54-8 11-10 14-65 90-14 19-13 19-10 13-12 17-10 14-10 13-4 5-9 6-6 3-12 2h-65l-12-3-10-7-7-8-4-9-1-5v-9l4-13 7-11 13-18 12-17 13-18 11-16 13-18 10-14 24-34 13-18 12-17 8-11 12-17 8-11 11-16 13-18 10-14 12-17 13-18 24-34 13-18 1-3-4-7-11-15-10-14-12-17-26-36-12-17-13-18-10-14-13-18-12-17-13-18-10-14-13-18-20-28-13-18-14-19-12-18-5-11-2-12 3-14 7-10 8-6 10-4z" fill="#1B8DCE"/>
    <path transform="translate(734,676)" d="m0 0 4 2 6 9 14 19 13 18 14 19 12 17 11 15 78 108 9 12 14 20 5 11 1 6v8l-3 10-6 10-8 7-10 5-5 1h-73l-10-4-8-7-9-11-10-14-27-36-28-38-15-20-14-19-30-40 1-5 7-11 14-19 12-17 39-54z" fill="#E72687"/>
    <path transform="translate(791,196)" d="m0 0h45l16 1 12 4 9 7 7 11 3 9v10l-4 10-6 10-12 17-11 16-13 19-12 17-11 16-13 19-12 17-11 16-16 23-15 22-7 10-4 4-10-13-26-36-14-19-12-17-13-17-2-5 7-11 16-23 12-18 13-19 19-28 8-12 11-16 10-13 9-6 8-3 4-1z" fill="#7FBB4C"/>
    <path transform="translate(321,814)" d="m0 0 2 4-1 6v3 2l5-2 1 5 2 1v10l1 6v17l-1 6v6l2 7-1 7 1 1 1 14-2 10h2l2 6-1 16 1 12-3 9-3 3-1 8 14 1v1h-65l-12-3-10-7-7-8-4-9-1-5v-9l4-13 7-11 13-18 12-17 13-18 11-16 13-18z" fill="#4A75BB"/>
    <path transform="translate(308,197)" d="m0 0h35v1l-13 2-3 1 1 6v3l1 4h2v3l2 2-1 5-2 2 1 6-2 2v8l2 4v9l-1 3h2l2 10-1 7-2 3v11l-2 3-4-1-2-1v2l-7-1-6-7 1 4 6 10 7 10 4 10-5-5-10-14-26-36-8-14-3-8-1-9 3-14 7-10 8-6 10-4z" fill="#4A75BB"/>
</svg>
